<?xml version="1.0" encoding="UTF-8" standalone="no"?>
<svg
   viewBox="0 0 36 36"
   version="1.1"
   id="svg6"
   sodipodi:docname="1f1e8-1f1f3.svg"
   xml:space="preserve"
   inkscape:version="1.2 (dc2aedaf03, 2022-05-15)"
   xmlns:inkscape="http://www.inkscape.org/namespaces/inkscape"
   xmlns:sodipodi="http://sodipodi.sourceforge.net/DTD/sodipodi-0.dtd"
   xmlns="http://www.w3.org/2000/svg"
   xmlns:svg="http://www.w3.org/2000/svg"><defs
     id="defs10" /><sodipodi:namedview
     id="namedview8"
     pagecolor="#ffffff"
     bordercolor="#000000"
     borderopacity="0.25"
     inkscape:showpageshadow="2"
     inkscape:pageopacity="0.0"
     inkscape:pagecheckerboard="0"
     inkscape:deskcolor="#d1d1d1"
     showgrid="false"
     inkscape:zoom="22.444444"
     inkscape:cx="8.4876238"
     inkscape:cy="18.512376"
     inkscape:window-width="1920"
     inkscape:window-height="991"
     inkscape:window-x="-9"
     inkscape:window-y="-9"
     inkscape:window-maximized="1"
     inkscape:current-layer="svg6" /><path
     fill="#DE2910"
     d="M36 27c0 2.209-1.791 4-4 4H4c-2.209 0-4-1.791-4-4V9c0-2.209 1.791-4 4-4h28c2.209 0 4 1.791 4 4v18z"
     id="path2"
     style="fill:#00acff;fill-opacity:1" /><style
     type="text/css"
     id="style170">
	.st0{fill:#00ACFF;}
	.st1{fill:#FFFFFF;stroke:#00ACFF;stroke-width:0.5;stroke-miterlimit:10;}
	.st2{fill:#FFFF00;}
	.st3{fill:none;stroke:#FFFFFF;stroke-width:5;stroke-miterlimit:10;}
	.st4{fill:#FFFFFF;}
</style><g
     id="g275"
     transform="matrix(0.03984373,0,0,0.03984373,0.07032141,6.0488726)"><path
       class="st1"
       d="m 379.5,145.9 c 0,-38.5 31.7,-70.2 70.2,-70.2 38.5,0 70.2,31.6 70.2,70.1 v 0 c 36.6,-11.9 76.5,8.4 88.4,45.1 11.9,36.7 -8.4,76.5 -45.1,88.4 22.6,31.2 15.6,75.4 -15.5,98 -31.1,22.6 -75.4,15.6 -98,-15.5 v 0 c -22.6,31.2 -66.8,37.7 -97.9,15.1 -31.2,-22.6 -38.2,-66.9 -15.5,-98 l 0.4,0.1 c -36.6,-11.9 -57,-51.8 -45.1,-88.4 11.9,-36.6 51.8,-57 88.4,-45.1"
       id="path174" /><g
       transform="matrix(3,0,0,3,5,5)"
       id="g177">
	<path
   id="s"
   class="st2"
   d="m 148.2,142.5 7,21.6 -18.4,-13.4 h 22.8 l -18.4,13.4 z" />
</g><circle
       class="st0"
       cx="449.79999"
       cy="145.5"
       r="7.9000001"
       id="circle179" /><circle
       class="st0"
       cx="541.59998"
       cy="212.60001"
       r="7.9000001"
       id="circle181" /><circle
       class="st0"
       cx="393.29999"
       cy="320.39999"
       r="7.9000001"
       id="circle183" /><circle
       class="st0"
       cx="357.89999"
       cy="212.39999"
       r="7.9000001"
       id="circle185" /><g
       transform="rotate(20.659808,-19.688647,31.93183)"
       id="g188">
	<path
   id="s_5_"
   class="st2"
   d="m 523.5,287.9 -50.3,2.3 42.1,27.7 -17.8,-47.1 -13.3,48.6 z" />
</g><g
       transform="rotate(45.869898,1.2733821,16.179854)"
       id="g191">
	<path
   id="s_6_"
   class="st2"
   d="m 539.8,81.8 -36.8,19.4 41.2,5.9 -29.8,-29 7.1,41 z" />
</g><path
       class="st3"
       d="M 369.8,410.4"
       id="path193" /><path
       class="st3"
       d="M 484.4,410.4"
       id="path195" /><path
       class="st4"
       d="m 415.7,410.4 c 12.2,-3.2 23.7,-9 33.8,-16.9 v 0 c 10.4,8.1 22.2,13.8 34.8,16.9 0.1,0 -68.6,0 -68.6,0 z"
       id="path197" /><path
       class="st3"
       d="M 300.6,326.4"
       id="path199" /><path
       class="st4"
       d="m 218.5,355.3 c 5.6,-7.8 11.9,-15.2 18.9,-22.1 l 63.9,0.2 c 1.1,7.6 3.1,15 5.9,21.9 0,0 -88.7,0 -88.7,0 z"
       id="path201" /><path
       class="st4"
       d="m 300.6,326.4 h -55.9 c 17.4,-15.4 38.1,-27.6 60.9,-36.2 -3.5,9.8 -5.2,20.2 -5.2,30.7 0.1,1.8 0.1,3.6 0.2,5.5 z"
       id="path203" /><path
       class="st4"
       d="m 213.7,362.5 c -4.9,7.7 -9.1,15.8 -12.6,24.1 h 127 c -7.1,-7 -13.1,-15.2 -17.7,-24.1 0.1,0 -96.7,0 -96.7,0 z"
       id="path205" /><path
       class="st4"
       d="M 336.4,393.9 H 198.3 c -1.9,5.4 -3.5,10.9 -4.8,16.5 h 176.3 v 0 c -12.3,-3.2 -23.6,-8.9 -33.4,-16.5 z"
       id="path207" /><path
       class="st4"
       d="m 679.8,355.3 c -5.6,-7.8 -11.9,-15.2 -18.9,-22.1 l -63.9,0.2 c -1.1,7.6 -3.1,15 -5.9,21.9 0,0 88.7,0 88.7,0 z"
       id="path209" /><path
       class="st4"
       d="m 597.7,326.4 h 55.9 c -17.4,-15.4 -38.1,-27.6 -60.9,-36.2 3.5,9.8 5.2,20.2 5.2,30.7 0,1.8 -0.1,3.6 -0.2,5.5 z"
       id="path211" /><path
       class="st4"
       d="m 684.6,362.5 c 4.9,7.7 9.1,15.8 12.6,24.1 h -127 c 7.1,-7 13.1,-15.2 17.7,-24.1 -0.1,0 96.7,0 96.7,0 z"
       id="path213" /><path
       class="st4"
       d="M 561.9,393.9 H 700 c 1.9,5.4 3.5,10.9 4.8,16.5 H 528.5 v 0 c 12.3,-3.2 23.6,-8.9 33.4,-16.5 z"
       id="path215" /><g
       transform="rotate(20.659808,-19.688647,31.93183)"
       id="g218">
	<path
   id="s_3_"
   class="st2"
   d="m 620.6,251.2 39.3,-31.5 -13.3,48.6 -17.7,-47.1 42.1,27.7 z" />
</g><g
       transform="rotate(45.869898,1.2733821,16.179854)"
       id="g221">
	<path
   id="s_1_"
   class="st2"
   d="m 708.3,-91.9 18.3,-37.4 7.1,41 -29.9,-28.9 41.2,5.9 z" />
</g><rect
       x="448.5"
       y="145.5"
       class="st0"
       width="3"
       height="221.89999"
       id="rect223" /><rect
       x="462.89999"
       y="139.2"
       transform="matrix(0.309,-0.9511,0.9511,0.309,85.7722,612.4617)"
       class="st0"
       width="3"
       height="216"
       id="rect225" /><rect
       x="438"
       y="121.5"
       transform="matrix(-0.809,0.5878,-0.5878,-0.809,929.1721,154.6716)"
       class="st0"
       width="3"
       height="213.60001"
       id="rect227" /><circle
       class="st0"
       cx="506.39999"
       cy="320.39999"
       r="7.9000001"
       id="circle229" /><rect
       x="433.29999"
       y="136.39999"
       transform="matrix(0.309,0.9511,-0.9511,0.309,535.6357,-242.6393)"
       class="st0"
       width="3"
       height="221.89999"
       id="rect231" /><rect
       x="456.20001"
       y="120.2"
       transform="matrix(-0.809,-0.5878,0.5878,-0.809,692.1205,687.1836)"
       class="st0"
       width="3"
       height="221.89999"
       id="rect233" /></g></svg>
